<mxfile host="app.diagrams.net" agent="Mozilla/5.0 (Windows NT 10.0; Win64; x64) AppleWebKit/537.36 (KHTML, like Gecko) Chrome/130.0.0.0 Safari/537.36" version="24.8.1">
  <diagram id="C5RBs43oDa-KdzZeNtuy" name="Page-1">
    <mxGraphModel dx="957" dy="422" grid="1" gridSize="10" guides="1" tooltips="1" connect="1" arrows="1" fold="1" page="1" pageScale="1" pageWidth="827" pageHeight="1169" math="0" shadow="0">
      <root>
        <mxCell id="WIyWlLk6GJQsqaUBKTNV-0" />
        <mxCell id="WIyWlLk6GJQsqaUBKTNV-1" parent="WIyWlLk6GJQsqaUBKTNV-0" />
        <mxCell id="xoWU5BoLfxFo8F-vCbKV-68" value="" style="rounded=0;whiteSpace=wrap;html=1;fillColor=#FFE1B5;strokeWidth=3;" parent="WIyWlLk6GJQsqaUBKTNV-1" vertex="1">
          <mxGeometry x="50" y="560" width="630" height="440" as="geometry" />
        </mxCell>
        <mxCell id="xoWU5BoLfxFo8F-vCbKV-58" value="" style="rounded=0;whiteSpace=wrap;html=1;fillColor=#FFE1B5;strokeWidth=3;" parent="WIyWlLk6GJQsqaUBKTNV-1" vertex="1">
          <mxGeometry x="50" y="55" width="630" height="440" as="geometry" />
        </mxCell>
        <mxCell id="xoWU5BoLfxFo8F-vCbKV-65" value="" style="rounded=0;whiteSpace=wrap;html=1;strokeWidth=3;fillColor=#D5E8D4;" parent="WIyWlLk6GJQsqaUBKTNV-1" vertex="1">
          <mxGeometry x="50" y="320" width="210" height="175" as="geometry" />
        </mxCell>
        <mxCell id="xoWU5BoLfxFo8F-vCbKV-3" style="edgeStyle=orthogonalEdgeStyle;rounded=0;orthogonalLoop=1;jettySize=auto;html=1;" parent="WIyWlLk6GJQsqaUBKTNV-1" source="xoWU5BoLfxFo8F-vCbKV-0" target="xoWU5BoLfxFo8F-vCbKV-2" edge="1">
          <mxGeometry relative="1" as="geometry" />
        </mxCell>
        <mxCell id="xoWU5BoLfxFo8F-vCbKV-0" value="Holovibes" style="rhombus;whiteSpace=wrap;html=1;shadow=0;fontFamily=Helvetica;fontSize=15;align=center;strokeWidth=1;spacing=6;spacingTop=-4;fillColor=none;" parent="WIyWlLk6GJQsqaUBKTNV-1" vertex="1">
          <mxGeometry x="80" y="87.5" width="130" height="125" as="geometry" />
        </mxCell>
        <mxCell id="xoWU5BoLfxFo8F-vCbKV-1" value="ThreadWorkerController" style="swimlane;labelBackgroundColor=none;fontSize=15;fontColor=none;startSize=20;fillColor=none;" parent="WIyWlLk6GJQsqaUBKTNV-1" vertex="1">
          <mxGeometry x="280" y="60" width="140" height="160" as="geometry">
            <mxRectangle x="280" y="60" width="190" height="23" as="alternateBounds" />
          </mxGeometry>
        </mxCell>
        <mxCell id="xoWU5BoLfxFo8F-vCbKV-2" value="&lt;div style=&quot;font-size: 15px&quot;&gt;CameraFrame&lt;br&gt;ReadWorker&lt;/div&gt;" style="rhombus;whiteSpace=wrap;html=1;shadow=0;fontFamily=Helvetica;fontSize=15;align=center;strokeWidth=1;spacing=6;spacingTop=-4;direction=west;fillColor=none;" parent="xoWU5BoLfxFo8F-vCbKV-1" vertex="1">
          <mxGeometry y="20" width="140" height="140" as="geometry" />
        </mxCell>
        <mxCell id="xoWU5BoLfxFo8F-vCbKV-6" value="Get / Set" style="text;html=1;align=center;verticalAlign=middle;resizable=0;points=[];autosize=1;strokeColor=none;fillColor=none;" parent="WIyWlLk6GJQsqaUBKTNV-1" vertex="1">
          <mxGeometry x="130" y="285" width="60" height="20" as="geometry" />
        </mxCell>
        <mxCell id="xoWU5BoLfxFo8F-vCbKV-7" value="&lt;div style=&quot;font-size: 15px;&quot;&gt;Holovibes settings&lt;/div&gt;" style="whiteSpace=wrap;html=1;fontSize=15;fillColor=none;" parent="WIyWlLk6GJQsqaUBKTNV-1" vertex="1">
          <mxGeometry x="70" y="365" width="180" height="90" as="geometry" />
        </mxCell>
        <mxCell id="xoWU5BoLfxFo8F-vCbKV-11" value="" style="strokeWidth=1;html=1;shape=mxgraph.flowchart.direct_data;whiteSpace=wrap;fontSize=11;direction=south;strokeColor=#000000;fillColor=none;" parent="WIyWlLk6GJQsqaUBKTNV-1" vertex="1">
          <mxGeometry x="330" y="230" width="40" height="90" as="geometry" />
        </mxCell>
        <mxCell id="xoWU5BoLfxFo8F-vCbKV-12" value="ThreadWorkerController" style="swimlane;labelBackgroundColor=none;fontSize=15;fontColor=none;startSize=20;fillColor=none;" parent="WIyWlLk6GJQsqaUBKTNV-1" vertex="1">
          <mxGeometry x="280" y="330" width="140" height="160" as="geometry">
            <mxRectangle x="230" y="520" width="190" height="23" as="alternateBounds" />
          </mxGeometry>
        </mxCell>
        <mxCell id="xoWU5BoLfxFo8F-vCbKV-13" value="ComputeWorker" style="rhombus;whiteSpace=wrap;html=1;shadow=0;fontFamily=Helvetica;fontSize=15;align=center;strokeWidth=1;spacing=6;spacingTop=-4;direction=west;fillColor=none;" parent="xoWU5BoLfxFo8F-vCbKV-12" vertex="1">
          <mxGeometry y="20" width="140" height="140" as="geometry" />
        </mxCell>
        <mxCell id="xoWU5BoLfxFo8F-vCbKV-14" value="Start / Stop" style="text;html=1;align=center;verticalAlign=middle;resizable=0;points=[];autosize=1;strokeColor=none;fillColor=none;" parent="WIyWlLk6GJQsqaUBKTNV-1" vertex="1">
          <mxGeometry x="210" y="122.5" width="70" height="20" as="geometry" />
        </mxCell>
        <mxCell id="xoWU5BoLfxFo8F-vCbKV-15" value="Input queue" style="text;html=1;align=center;verticalAlign=middle;resizable=0;points=[];autosize=1;strokeColor=none;fillColor=none;" parent="WIyWlLk6GJQsqaUBKTNV-1" vertex="1">
          <mxGeometry x="235" y="240" width="90" height="30" as="geometry" />
        </mxCell>
        <mxCell id="xoWU5BoLfxFo8F-vCbKV-16" style="edgeStyle=orthogonalEdgeStyle;rounded=0;orthogonalLoop=1;jettySize=auto;html=1;exitX=0;exitY=0.5;exitDx=0;exitDy=0;" parent="WIyWlLk6GJQsqaUBKTNV-1" source="xoWU5BoLfxFo8F-vCbKV-2" target="xoWU5BoLfxFo8F-vCbKV-17" edge="1">
          <mxGeometry relative="1" as="geometry">
            <mxPoint x="530" y="150" as="targetPoint" />
          </mxGeometry>
        </mxCell>
        <mxCell id="xoWU5BoLfxFo8F-vCbKV-20" style="edgeStyle=orthogonalEdgeStyle;rounded=0;orthogonalLoop=1;jettySize=auto;html=1;" parent="WIyWlLk6GJQsqaUBKTNV-1" source="xoWU5BoLfxFo8F-vCbKV-17" target="xoWU5BoLfxFo8F-vCbKV-19" edge="1">
          <mxGeometry relative="1" as="geometry" />
        </mxCell>
        <mxCell id="xoWU5BoLfxFo8F-vCbKV-17" value="Camera" style="rounded=0;whiteSpace=wrap;html=1;fillColor=none;" parent="WIyWlLk6GJQsqaUBKTNV-1" vertex="1">
          <mxGeometry x="550" y="122.5" width="110" height="55" as="geometry" />
        </mxCell>
        <mxCell id="xoWU5BoLfxFo8F-vCbKV-18" value="Start acquisition" style="text;html=1;align=center;verticalAlign=middle;resizable=0;points=[];autosize=1;strokeColor=none;fillColor=none;" parent="WIyWlLk6GJQsqaUBKTNV-1" vertex="1">
          <mxGeometry x="440" y="130" width="100" height="20" as="geometry" />
        </mxCell>
        <mxCell id="xoWU5BoLfxFo8F-vCbKV-22" style="edgeStyle=orthogonalEdgeStyle;rounded=0;orthogonalLoop=1;jettySize=auto;html=1;entryX=0.422;entryY=-0.1;entryDx=0;entryDy=0;entryPerimeter=0;" parent="WIyWlLk6GJQsqaUBKTNV-1" source="xoWU5BoLfxFo8F-vCbKV-19" target="xoWU5BoLfxFo8F-vCbKV-11" edge="1">
          <mxGeometry relative="1" as="geometry">
            <mxPoint x="380" y="267.5" as="targetPoint" />
          </mxGeometry>
        </mxCell>
        <mxCell id="xoWU5BoLfxFo8F-vCbKV-19" value="enqueue_loop" style="rounded=1;whiteSpace=wrap;html=1;fillColor=none;" parent="WIyWlLk6GJQsqaUBKTNV-1" vertex="1">
          <mxGeometry x="550" y="250" width="110" height="35" as="geometry" />
        </mxCell>
        <mxCell id="xoWU5BoLfxFo8F-vCbKV-21" value="Get frames" style="text;html=1;align=center;verticalAlign=middle;resizable=0;points=[];autosize=1;strokeColor=none;fillColor=none;" parent="WIyWlLk6GJQsqaUBKTNV-1" vertex="1">
          <mxGeometry x="510" y="210" width="80" height="20" as="geometry" />
        </mxCell>
        <mxCell id="xoWU5BoLfxFo8F-vCbKV-23" value="Enqueue frames" style="text;html=1;align=center;verticalAlign=middle;resizable=0;points=[];autosize=1;strokeColor=none;fillColor=none;" parent="WIyWlLk6GJQsqaUBKTNV-1" vertex="1">
          <mxGeometry x="425" y="280" width="110" height="20" as="geometry" />
        </mxCell>
        <mxCell id="xoWU5BoLfxFo8F-vCbKV-25" value="Stop" style="text;html=1;align=center;verticalAlign=middle;resizable=0;points=[];autosize=1;strokeColor=none;fillColor=none;" parent="WIyWlLk6GJQsqaUBKTNV-1" vertex="1">
          <mxGeometry x="470" y="150" width="40" height="20" as="geometry" />
        </mxCell>
        <mxCell id="xoWU5BoLfxFo8F-vCbKV-43" style="edgeStyle=orthogonalEdgeStyle;rounded=0;orthogonalLoop=1;jettySize=auto;html=1;" parent="WIyWlLk6GJQsqaUBKTNV-1" source="xoWU5BoLfxFo8F-vCbKV-44" target="xoWU5BoLfxFo8F-vCbKV-47" edge="1">
          <mxGeometry relative="1" as="geometry">
            <Array as="points">
              <mxPoint x="510" y="725" />
              <mxPoint x="510" y="725" />
            </Array>
          </mxGeometry>
        </mxCell>
        <mxCell id="xoWU5BoLfxFo8F-vCbKV-44" value="File" style="rounded=0;whiteSpace=wrap;html=1;fillColor=none;" parent="WIyWlLk6GJQsqaUBKTNV-1" vertex="1">
          <mxGeometry x="495" y="627.5" width="110" height="55" as="geometry" />
        </mxCell>
        <mxCell id="xoWU5BoLfxFo8F-vCbKV-48" value="Read frames" style="text;html=1;align=center;verticalAlign=middle;resizable=0;points=[];autosize=1;strokeColor=none;fillColor=none;" parent="WIyWlLk6GJQsqaUBKTNV-1" vertex="1">
          <mxGeometry x="505" y="710" width="90" height="20" as="geometry" />
        </mxCell>
        <mxCell id="xoWU5BoLfxFo8F-vCbKV-56" value="From CPU&lt;br&gt;by batch" style="text;html=1;align=center;verticalAlign=middle;resizable=0;points=[];autosize=1;strokeColor=none;fillColor=none;" parent="WIyWlLk6GJQsqaUBKTNV-1" vertex="1">
          <mxGeometry x="590" y="725" width="70" height="30" as="geometry" />
        </mxCell>
        <mxCell id="xoWU5BoLfxFo8F-vCbKV-60" style="edgeStyle=orthogonalEdgeStyle;rounded=0;orthogonalLoop=1;jettySize=auto;html=1;exitX=1;exitY=0;exitDx=0;exitDy=0;entryX=0.708;entryY=0.056;entryDx=0;entryDy=0;entryPerimeter=0;" parent="WIyWlLk6GJQsqaUBKTNV-1" source="xoWU5BoLfxFo8F-vCbKV-2" target="xoWU5BoLfxFo8F-vCbKV-7" edge="1">
          <mxGeometry relative="1" as="geometry">
            <mxPoint x="197.5" y="290" as="targetPoint" />
          </mxGeometry>
        </mxCell>
        <mxCell id="xoWU5BoLfxFo8F-vCbKV-66" value="&lt;font style=&quot;font-size: 20px&quot;&gt;&lt;b&gt;State&lt;/b&gt;&lt;/font&gt;" style="text;html=1;strokeColor=none;fillColor=none;align=center;verticalAlign=middle;whiteSpace=wrap;rounded=0;labelBackgroundColor=none;fontSize=14;fontColor=default;" parent="WIyWlLk6GJQsqaUBKTNV-1" vertex="1">
          <mxGeometry x="40" y="450" width="90" height="50" as="geometry" />
        </mxCell>
        <mxCell id="xoWU5BoLfxFo8F-vCbKV-67" value="&lt;font style=&quot;font-size: 20px&quot;&gt;&lt;b&gt;&lt;font style=&quot;font-size: 20px&quot;&gt;Backend&lt;/font&gt;&lt;/b&gt;&lt;/font&gt;" style="text;html=1;strokeColor=none;fillColor=none;align=center;verticalAlign=middle;whiteSpace=wrap;rounded=0;labelBackgroundColor=none;fontSize=14;fontColor=default;" parent="WIyWlLk6GJQsqaUBKTNV-1" vertex="1">
          <mxGeometry x="580" y="450" width="90" height="50" as="geometry" />
        </mxCell>
        <mxCell id="xoWU5BoLfxFo8F-vCbKV-69" value="" style="rounded=0;whiteSpace=wrap;html=1;strokeWidth=3;fillColor=#D5E8D4;" parent="WIyWlLk6GJQsqaUBKTNV-1" vertex="1">
          <mxGeometry x="50" y="830" width="210" height="170" as="geometry" />
        </mxCell>
        <mxCell id="xoWU5BoLfxFo8F-vCbKV-70" style="edgeStyle=orthogonalEdgeStyle;rounded=0;orthogonalLoop=1;jettySize=auto;html=1;" parent="WIyWlLk6GJQsqaUBKTNV-1" source="xoWU5BoLfxFo8F-vCbKV-71" target="xoWU5BoLfxFo8F-vCbKV-73" edge="1">
          <mxGeometry relative="1" as="geometry" />
        </mxCell>
        <mxCell id="xoWU5BoLfxFo8F-vCbKV-71" value="Holovibes" style="rhombus;whiteSpace=wrap;html=1;shadow=0;fontFamily=Helvetica;fontSize=15;align=center;strokeWidth=1;spacing=6;spacingTop=-4;fillColor=none;" parent="WIyWlLk6GJQsqaUBKTNV-1" vertex="1">
          <mxGeometry x="80" y="592.5" width="130" height="125" as="geometry" />
        </mxCell>
        <mxCell id="xoWU5BoLfxFo8F-vCbKV-72" value="ThreadWorkerController" style="swimlane;labelBackgroundColor=none;fontSize=15;fontColor=none;startSize=20;fillColor=none;" parent="WIyWlLk6GJQsqaUBKTNV-1" vertex="1">
          <mxGeometry x="280" y="565" width="140" height="160" as="geometry">
            <mxRectangle x="740" y="510" width="190" height="23" as="alternateBounds" />
          </mxGeometry>
        </mxCell>
        <mxCell id="xoWU5BoLfxFo8F-vCbKV-73" value="&lt;div style=&quot;font-size: 15px&quot;&gt;FileFrame&lt;br&gt;ReadWorker&lt;/div&gt;" style="rhombus;whiteSpace=wrap;html=1;shadow=0;fontFamily=Helvetica;fontSize=15;align=center;strokeWidth=1;spacing=6;spacingTop=-4;direction=west;fillColor=none;" parent="xoWU5BoLfxFo8F-vCbKV-72" vertex="1">
          <mxGeometry y="20" width="140" height="140" as="geometry" />
        </mxCell>
        <mxCell id="xoWU5BoLfxFo8F-vCbKV-75" value="Get / Set" style="text;html=1;align=center;verticalAlign=middle;resizable=0;points=[];autosize=1;strokeColor=none;fillColor=none;" parent="WIyWlLk6GJQsqaUBKTNV-1" vertex="1">
          <mxGeometry x="125" y="790" width="60" height="20" as="geometry" />
        </mxCell>
        <mxCell id="xoWU5BoLfxFo8F-vCbKV-77" value="&lt;div style=&quot;font-size: 15px;&quot;&gt;Holovibes settings&lt;/div&gt;" style="whiteSpace=wrap;html=1;fontSize=15;fillColor=none;" parent="WIyWlLk6GJQsqaUBKTNV-1" vertex="1">
          <mxGeometry x="70" y="870" width="180" height="90" as="geometry" />
        </mxCell>
        <mxCell id="xoWU5BoLfxFo8F-vCbKV-79" value="" style="strokeWidth=1;html=1;shape=mxgraph.flowchart.direct_data;whiteSpace=wrap;fontSize=11;direction=south;strokeColor=#000000;fillColor=none;" parent="WIyWlLk6GJQsqaUBKTNV-1" vertex="1">
          <mxGeometry x="330" y="735" width="40" height="90" as="geometry" />
        </mxCell>
        <mxCell id="xoWU5BoLfxFo8F-vCbKV-80" value="ThreadWorkerController" style="swimlane;labelBackgroundColor=none;fontSize=15;fontColor=none;startSize=20;fillColor=none;" parent="WIyWlLk6GJQsqaUBKTNV-1" vertex="1">
          <mxGeometry x="280" y="835" width="140" height="160" as="geometry">
            <mxRectangle x="230" y="520" width="190" height="23" as="alternateBounds" />
          </mxGeometry>
        </mxCell>
        <mxCell id="xoWU5BoLfxFo8F-vCbKV-81" value="ComputeWorker" style="rhombus;whiteSpace=wrap;html=1;shadow=0;fontFamily=Helvetica;fontSize=15;align=center;strokeWidth=1;spacing=6;spacingTop=-4;direction=west;fillColor=none;" parent="xoWU5BoLfxFo8F-vCbKV-80" vertex="1">
          <mxGeometry y="20" width="140" height="140" as="geometry" />
        </mxCell>
        <mxCell id="xoWU5BoLfxFo8F-vCbKV-82" value="Start / Stop" style="text;html=1;align=center;verticalAlign=middle;resizable=0;points=[];autosize=1;strokeColor=none;fillColor=none;" parent="WIyWlLk6GJQsqaUBKTNV-1" vertex="1">
          <mxGeometry x="210" y="627.5" width="70" height="20" as="geometry" />
        </mxCell>
        <mxCell id="xoWU5BoLfxFo8F-vCbKV-83" value="Input queue" style="text;html=1;align=center;verticalAlign=middle;resizable=0;points=[];autosize=1;strokeColor=none;fillColor=none;" parent="WIyWlLk6GJQsqaUBKTNV-1" vertex="1">
          <mxGeometry x="235" y="745" width="90" height="30" as="geometry" />
        </mxCell>
        <mxCell id="xoWU5BoLfxFo8F-vCbKV-88" style="edgeStyle=orthogonalEdgeStyle;rounded=0;orthogonalLoop=1;jettySize=auto;html=1;startArrow=none;entryX=0.413;entryY=-0.058;entryDx=0;entryDy=0;entryPerimeter=0;" parent="WIyWlLk6GJQsqaUBKTNV-1" source="xoWU5BoLfxFo8F-vCbKV-47" target="xoWU5BoLfxFo8F-vCbKV-79" edge="1">
          <mxGeometry relative="1" as="geometry">
            <mxPoint x="380" y="772.5" as="targetPoint" />
            <mxPoint x="550" y="772.5" as="sourcePoint" />
          </mxGeometry>
        </mxCell>
        <mxCell id="xoWU5BoLfxFo8F-vCbKV-91" value="Enqueue frames" style="text;html=1;align=center;verticalAlign=middle;resizable=0;points=[];autosize=1;strokeColor=none;fillColor=none;" parent="WIyWlLk6GJQsqaUBKTNV-1" vertex="1">
          <mxGeometry x="385" y="782.5" width="110" height="20" as="geometry" />
        </mxCell>
        <mxCell id="xoWU5BoLfxFo8F-vCbKV-93" style="edgeStyle=orthogonalEdgeStyle;rounded=0;orthogonalLoop=1;jettySize=auto;html=1;exitX=1;exitY=0;exitDx=0;exitDy=0;entryX=0.708;entryY=0;entryDx=0;entryDy=0;entryPerimeter=0;" parent="WIyWlLk6GJQsqaUBKTNV-1" source="xoWU5BoLfxFo8F-vCbKV-73" target="xoWU5BoLfxFo8F-vCbKV-77" edge="1">
          <mxGeometry relative="1" as="geometry">
            <mxPoint x="197.5" y="795" as="targetPoint" />
          </mxGeometry>
        </mxCell>
        <mxCell id="xoWU5BoLfxFo8F-vCbKV-94" value="&lt;font style=&quot;font-size: 20px&quot;&gt;&lt;b&gt;State&lt;/b&gt;&lt;/font&gt;" style="text;html=1;strokeColor=none;fillColor=none;align=center;verticalAlign=middle;whiteSpace=wrap;rounded=0;labelBackgroundColor=none;fontSize=14;fontColor=default;" parent="WIyWlLk6GJQsqaUBKTNV-1" vertex="1">
          <mxGeometry x="40" y="955" width="90" height="50" as="geometry" />
        </mxCell>
        <mxCell id="xoWU5BoLfxFo8F-vCbKV-95" value="&lt;font style=&quot;font-size: 20px&quot;&gt;&lt;b&gt;&lt;font style=&quot;font-size: 20px&quot;&gt;Backend&lt;/font&gt;&lt;/b&gt;&lt;/font&gt;" style="text;html=1;strokeColor=none;fillColor=none;align=center;verticalAlign=middle;whiteSpace=wrap;rounded=0;labelBackgroundColor=none;fontSize=14;fontColor=default;" parent="WIyWlLk6GJQsqaUBKTNV-1" vertex="1">
          <mxGeometry x="580" y="955" width="90" height="50" as="geometry" />
        </mxCell>
        <mxCell id="xoWU5BoLfxFo8F-vCbKV-96" value="From GPU" style="text;html=1;align=center;verticalAlign=middle;resizable=0;points=[];autosize=1;strokeColor=none;fillColor=none;" parent="WIyWlLk6GJQsqaUBKTNV-1" vertex="1">
          <mxGeometry x="435" y="725" width="70" height="20" as="geometry" />
        </mxCell>
        <mxCell id="xoWU5BoLfxFo8F-vCbKV-100" style="edgeStyle=orthogonalEdgeStyle;rounded=0;orthogonalLoop=1;jettySize=auto;html=1;exitX=0.902;exitY=-0.011;exitDx=0;exitDy=0;exitPerimeter=0;" parent="WIyWlLk6GJQsqaUBKTNV-1" source="xoWU5BoLfxFo8F-vCbKV-47" edge="1">
          <mxGeometry relative="1" as="geometry">
            <mxPoint x="590" y="683" as="targetPoint" />
            <Array as="points">
              <mxPoint x="590" y="755" />
            </Array>
          </mxGeometry>
        </mxCell>
        <mxCell id="xoWU5BoLfxFo8F-vCbKV-47" value="enqueue_loop" style="rounded=1;whiteSpace=wrap;html=1;fillColor=none;" parent="WIyWlLk6GJQsqaUBKTNV-1" vertex="1">
          <mxGeometry x="495" y="755" width="110" height="35" as="geometry" />
        </mxCell>
        <mxCell id="xoWU5BoLfxFo8F-vCbKV-99" style="edgeStyle=orthogonalEdgeStyle;rounded=0;orthogonalLoop=1;jettySize=auto;html=1;entryX=0;entryY=0.5;entryDx=0;entryDy=0;" parent="WIyWlLk6GJQsqaUBKTNV-1" source="xoWU5BoLfxFo8F-vCbKV-73" target="xoWU5BoLfxFo8F-vCbKV-44" edge="1">
          <mxGeometry relative="1" as="geometry" />
        </mxCell>
        <mxCell id="xoWU5BoLfxFo8F-vCbKV-101" value="Open " style="text;html=1;strokeColor=none;fillColor=none;align=center;verticalAlign=middle;whiteSpace=wrap;rounded=0;" parent="WIyWlLk6GJQsqaUBKTNV-1" vertex="1">
          <mxGeometry x="424" y="627.5" width="60" height="30" as="geometry" />
        </mxCell>
        <mxCell id="xoWU5BoLfxFo8F-vCbKV-103" value="Close" style="text;html=1;strokeColor=none;fillColor=none;align=center;verticalAlign=middle;whiteSpace=wrap;rounded=0;" parent="WIyWlLk6GJQsqaUBKTNV-1" vertex="1">
          <mxGeometry x="424" y="647.5" width="60" height="30" as="geometry" />
        </mxCell>
      </root>
    </mxGraphModel>
  </diagram>
</mxfile>
